<mxfile host="app.diagrams.net" modified="2021-05-26T02:39:25.521Z" agent="5.0 (Windows NT 10.0; Win64; x64) AppleWebKit/537.36 (KHTML, like Gecko) Chrome/90.0.4430.212 Safari/537.36" etag="lIEuMe59YejuoxJ6kAeU" version="14.7.0" type="github">
  <diagram id="8LWthn0jAPfd479x9VK2" name="Page-1">
    <mxGraphModel dx="781" dy="523" grid="1" gridSize="10" guides="1" tooltips="1" connect="1" arrows="1" fold="1" page="1" pageScale="1" pageWidth="2000" pageHeight="2000" math="0" shadow="0">
      <root>
        <mxCell id="0" />
        <mxCell id="1" parent="0" />
        <mxCell id="Tk_eSpiDAZAEWVDyd3lh-1" value="浏览器" style="rounded=0;whiteSpace=wrap;html=1;" vertex="1" parent="1">
          <mxGeometry x="90" y="180" width="120" height="60" as="geometry" />
        </mxCell>
        <mxCell id="Tk_eSpiDAZAEWVDyd3lh-3" value="Next.js服务端渲染" style="rounded=0;whiteSpace=wrap;html=1;" vertex="1" parent="1">
          <mxGeometry x="360" y="80" width="120" height="60" as="geometry" />
        </mxCell>
        <mxCell id="Tk_eSpiDAZAEWVDyd3lh-5" value="api服务" style="rounded=0;whiteSpace=wrap;html=1;" vertex="1" parent="1">
          <mxGeometry x="360" y="220" width="120" height="60" as="geometry" />
        </mxCell>
        <mxCell id="Tk_eSpiDAZAEWVDyd3lh-7" value="api调用：&lt;br&gt;GET POST PUT" style="text;html=1;strokeColor=none;fillColor=none;align=center;verticalAlign=middle;whiteSpace=wrap;rounded=0;" vertex="1" parent="1">
          <mxGeometry x="245" y="260" width="60" height="30" as="geometry" />
        </mxCell>
        <mxCell id="Tk_eSpiDAZAEWVDyd3lh-8" value="" style="endArrow=classic;html=1;entryX=1;entryY=0.25;entryDx=0;entryDy=0;exitX=0;exitY=0.75;exitDx=0;exitDy=0;" edge="1" parent="1" source="Tk_eSpiDAZAEWVDyd3lh-3" target="Tk_eSpiDAZAEWVDyd3lh-1">
          <mxGeometry width="50" height="50" relative="1" as="geometry">
            <mxPoint x="290" y="180" as="sourcePoint" />
            <mxPoint x="340" y="130" as="targetPoint" />
          </mxGeometry>
        </mxCell>
        <mxCell id="Tk_eSpiDAZAEWVDyd3lh-10" value="路由请求&lt;br&gt;GET" style="text;html=1;strokeColor=none;fillColor=none;align=center;verticalAlign=middle;whiteSpace=wrap;rounded=0;" vertex="1" parent="1">
          <mxGeometry x="240" y="130" width="60" height="20" as="geometry" />
        </mxCell>
        <mxCell id="Tk_eSpiDAZAEWVDyd3lh-11" value="数据请求" style="text;html=1;strokeColor=none;fillColor=none;align=center;verticalAlign=middle;whiteSpace=wrap;rounded=0;" vertex="1" parent="1">
          <mxGeometry x="430" y="160" width="50" height="20" as="geometry" />
        </mxCell>
        <mxCell id="Tk_eSpiDAZAEWVDyd3lh-14" value="" style="endArrow=classic;startArrow=classic;html=1;exitX=1;exitY=0.5;exitDx=0;exitDy=0;entryX=-0.004;entryY=0.617;entryDx=0;entryDy=0;entryPerimeter=0;" edge="1" parent="1" source="Tk_eSpiDAZAEWVDyd3lh-1" target="Tk_eSpiDAZAEWVDyd3lh-5">
          <mxGeometry width="50" height="50" relative="1" as="geometry">
            <mxPoint x="380" y="230" as="sourcePoint" />
            <mxPoint x="430" y="180" as="targetPoint" />
          </mxGeometry>
        </mxCell>
        <mxCell id="Tk_eSpiDAZAEWVDyd3lh-15" value="" style="endArrow=classic;html=1;exitX=0.5;exitY=0;exitDx=0;exitDy=0;entryX=0.5;entryY=1;entryDx=0;entryDy=0;" edge="1" parent="1" source="Tk_eSpiDAZAEWVDyd3lh-5" target="Tk_eSpiDAZAEWVDyd3lh-3">
          <mxGeometry width="50" height="50" relative="1" as="geometry">
            <mxPoint x="400" y="190" as="sourcePoint" />
            <mxPoint x="450" y="140" as="targetPoint" />
          </mxGeometry>
        </mxCell>
      </root>
    </mxGraphModel>
  </diagram>
</mxfile>
